<svg width="64" height="62" viewBox="0 0 64 62" fill="none" xmlns="http://www.w3.org/2000/svg">
<g id="Layer_1" clip-path="url(#clip0_1_1199)">
<path id="Vector" d="M63.9999 11.7412V55.8177C63.9671 55.8672 63.9123 55.9151 63.9044 55.9677C63.5334 58.9305 60.7703 62.0726 56.4416 61.9984C53.4436 61.9474 50.4425 61.9891 47.4446 61.9891C36.4061 61.9891 25.3661 61.9922 14.3276 61.9891C10.8333 61.9891 8.27372 60.1969 7.14028 56.9496C7.01034 56.5785 6.79586 56.5058 6.46084 56.4672C2.69733 56.0311 0.0109032 53.1024 0.00777213 49.3618C-0.00631754 36.5041 0.00307558 23.6464 0.00151006 10.7871C0.00151006 9.24387 0.270779 7.74703 0.950215 6.35843C2.98696 2.2019 6.37944 0.066421 11.0416 0.0262165C16.978 -0.0248123 22.9145 0.0138458 28.8493 0.0138458C35.8065 0.0138458 42.7621 0.00920687 49.7193 0.0153922C53.1681 0.0184848 55.7575 1.83542 56.8565 5.03786C56.9958 5.443 57.2369 5.49403 57.5844 5.54197C60.6435 5.95484 62.6614 7.6326 63.6743 10.4995C63.8168 10.9015 63.8935 11.3268 63.9999 11.7412ZM9.28034 43.2043C9.33044 43.2151 9.37897 43.226 9.42907 43.2383C9.54335 43.0481 9.6592 42.8564 9.77348 42.6662C13.6341 36.2041 17.4837 29.7374 21.3583 23.2845C23.4749 19.7589 28.0306 19.8424 30.0454 23.4268C30.5808 24.3793 31.1021 25.3396 31.6297 26.2952C34.3772 31.2759 37.1278 36.2551 39.8659 41.2405C40.3622 42.1435 41.0244 42.7806 42.1046 42.9059C42.9515 43.0033 43.6513 42.7033 44.2838 42.1853C46.0794 40.7147 47.861 39.2272 49.677 37.7813C51.5932 36.2567 53.7568 36.2072 55.6557 37.7303C57.4811 39.1931 59.2141 40.7689 60.9863 42.2951C61.1303 42.4188 61.2728 42.544 61.5029 42.742C61.5029 42.4327 61.5029 42.2688 61.5029 42.1049C61.5029 32.3723 61.5061 22.6397 61.5029 12.9071C61.5029 9.91343 59.546 7.96661 56.4964 7.95888C48.434 7.94187 40.3731 7.94496 32.3107 7.93877C32.0399 7.93877 31.7659 7.94496 31.4998 7.9063C30.9315 7.8228 30.5291 7.37282 30.4884 6.81459C30.4446 6.21617 30.7828 5.70742 31.3683 5.56516C31.6673 5.49248 31.9851 5.47547 32.295 5.47547C39.3978 5.47084 46.5021 5.47238 53.6049 5.47238H54.3438C53.6863 3.63689 51.9642 2.49106 49.8758 2.49106C36.857 2.48488 23.8365 2.46941 10.8177 2.49725C6.16339 2.50653 2.522 6.10328 2.5126 10.6943C2.48599 23.5536 2.49069 36.4144 2.53139 49.2737C2.53452 50.1009 2.79127 51.0009 3.18265 51.7354C3.90748 53.0931 5.13015 53.8523 6.78177 54.0039C6.78177 53.6637 6.78177 53.3993 6.78177 53.1348C6.78177 43.8955 6.78177 34.6578 6.78177 25.4185C6.78177 21.2217 6.76768 17.0234 6.78647 12.8267C6.80369 8.87585 9.48543 5.81412 13.3836 5.54815C16.1201 5.36105 18.8801 5.46774 21.6292 5.48785C22.5121 5.49403 23.0225 6.11875 22.9129 6.88418C22.8158 7.56456 22.3274 7.93568 21.4679 7.93877C19.093 7.94651 16.7166 7.90012 14.3448 7.96506C13.5339 7.98671 12.6634 8.13206 11.937 8.46762C10.0647 9.33202 9.28504 10.9325 9.28504 12.9226C9.28034 22.8809 9.28191 32.8408 9.28191 42.7992V43.209L9.28034 43.2043ZM42.1484 45.3754C43.0204 46.9542 43.8188 48.3938 44.6079 49.8381C44.8051 50.1984 45.0071 50.5617 45.1401 50.9468C45.3343 51.5127 45.0775 52.0632 44.5484 52.3555C44.0521 52.6292 43.3961 52.5101 43.0282 52.0493C42.8623 51.8421 42.7402 51.5978 42.6103 51.3643C37.7023 42.4698 32.7991 33.5722 27.8897 24.6778C26.8032 22.7108 24.6365 22.6459 23.4937 24.5556C18.8253 32.3584 14.1663 40.1673 9.51361 47.9794C9.38367 48.1974 9.29287 48.4742 9.2913 48.7247C9.27408 50.7195 9.25373 52.7158 9.28817 54.7105C9.3367 57.5434 11.3155 59.5119 14.1335 59.5134C28.2967 59.5227 42.46 59.5243 56.6232 59.5134C59.4866 59.5119 61.4842 57.5094 61.4982 54.6781C61.5123 51.9828 61.5108 49.2876 61.4857 46.5923C61.4826 46.3264 61.3433 45.9893 61.1476 45.8099C58.984 43.8182 56.8017 41.8466 54.6162 39.8797C53.4562 38.8359 52.318 38.8189 51.0922 39.8132C49.6754 40.9621 48.2571 42.108 46.8638 43.2832C45.5346 44.4043 44.193 45.4759 42.1484 45.3754Z" fill="#CBCBCB"/>
<path id="Vector_2" d="M9.2804 43.2044V42.7946C9.2804 32.8362 9.27727 22.8763 9.28353 12.918C9.28353 10.9279 10.0632 9.32742 11.9355 8.46303C12.6619 8.12747 13.5323 7.98212 14.3433 7.96047C16.7166 7.89552 19.0915 7.94191 21.4664 7.93418C22.3259 7.93109 22.8143 7.56152 22.9114 6.87959C23.0194 6.11415 22.5106 5.48944 21.6276 5.48325C18.8786 5.46315 16.1202 5.35645 13.3821 5.54356C9.48391 5.80953 6.80218 8.87125 6.78496 12.8221C6.76617 17.0189 6.78026 21.2171 6.78026 25.4139C6.78026 34.6532 6.78026 43.8909 6.78026 53.1302C6.78026 53.3947 6.78026 53.6591 6.78026 53.9993C5.12864 53.8477 3.90597 53.0885 3.18113 51.7308C2.78975 50.9963 2.53144 50.0948 2.52988 49.2691C2.49074 36.4098 2.48604 23.549 2.51109 10.6897C2.52048 6.09869 6.16032 2.50193 10.8162 2.49265C23.835 2.46482 36.8555 2.47874 49.8743 2.48647C51.9627 2.48647 53.6832 3.6323 54.3423 5.46779H53.6034C46.5006 5.46779 39.3963 5.46779 32.2935 5.47088C31.9836 5.47088 31.6658 5.48944 31.3667 5.56057C30.7828 5.70283 30.4447 6.21157 30.4869 6.81C30.5276 7.36823 30.9284 7.81821 31.4982 7.90171C31.7644 7.94037 32.0384 7.93418 32.3092 7.93418C40.3716 7.94037 48.4325 7.93727 56.4949 7.95428C59.5445 7.96047 61.4999 9.90884 61.5014 12.9025C61.5046 22.6351 61.5014 32.3677 61.5014 42.1003C61.5014 42.2642 61.5014 42.4281 61.5014 42.7374C61.2713 42.5394 61.1288 42.4142 60.9848 42.2905C59.2111 40.7643 57.478 39.1901 55.6542 37.7257C53.7552 36.2026 51.5917 36.2521 49.6755 37.7768C47.8595 39.2226 46.0779 40.7101 44.2823 42.1807C43.6498 42.6987 42.95 43.0002 42.1031 42.9013C41.0229 42.776 40.3607 42.1405 39.8644 41.2359C37.1263 36.2505 34.3757 31.2714 31.6282 26.2906C31.1006 25.3335 30.5793 24.3747 30.0439 23.4222C28.0306 19.8378 23.4734 19.7528 21.3568 23.2799C17.4837 29.7343 13.6325 36.201 9.77197 42.6616C9.65769 42.8533 9.54184 43.0435 9.42756 43.2337C9.37746 43.2229 9.32893 43.2121 9.27883 43.1997L9.2804 43.2044ZM53.9118 21.9795C53.9368 18.5018 51.0406 15.5978 47.5245 15.5761C44.0208 15.556 41.0777 18.426 41.0401 21.9006C41.0009 25.3458 43.9379 28.2761 47.4462 28.2916C50.989 28.307 53.8867 25.4788 53.9118 21.9795ZM25.4741 6.69557C25.4663 7.38369 25.9814 7.91563 26.6702 7.93109C27.3794 7.94655 27.957 7.39142 27.9492 6.70176C27.9414 6.02447 27.4013 5.50335 26.7078 5.50181C26.0095 5.50026 25.4835 6.01055 25.4757 6.69712L25.4741 6.69557Z" fill="white"/>
<path id="Vector_3" d="M42.1485 45.3754C44.1931 45.476 45.5332 44.4059 46.8639 43.2833C48.2572 42.1081 49.6771 40.9622 51.0923 39.8133C52.3181 38.819 53.4563 38.836 54.6163 39.8798C56.8033 41.8467 58.9857 43.8183 61.1477 45.81C61.3418 45.9893 61.4827 46.328 61.4858 46.5924C61.5109 49.2877 61.5109 51.9829 61.4983 54.6782C61.4842 57.511 59.4882 59.512 56.6233 59.5135C42.4601 59.5243 28.2968 59.5243 14.1336 59.5135C11.3156 59.512 9.3368 57.5435 9.28827 54.7106C9.25383 52.7159 9.27418 50.7196 9.2914 48.7248C9.29296 48.4743 9.38376 48.1975 9.5137 47.9795C14.1664 40.1674 18.8254 32.3585 23.4938 24.5557C24.6366 22.646 26.8033 22.7094 27.8898 24.6779C32.7992 33.5708 37.7024 42.4684 42.6103 51.3644C42.7403 51.5979 42.8624 51.8422 43.0283 52.0494C43.3962 52.5087 44.0522 52.6293 44.5485 52.3556C45.0776 52.0633 45.3344 51.5128 45.1402 50.9469C45.0087 50.5618 44.8052 50.1984 44.608 49.8381C43.8189 48.3939 43.0205 46.9558 42.1485 45.3754ZM46.3989 56.8013C47.069 56.7889 47.6247 56.226 47.6216 55.5657C47.6184 54.8745 47.0282 54.324 46.3222 54.3519C45.6459 54.3782 45.1089 54.9472 45.1308 55.6106C45.1528 56.2724 45.7304 56.8136 46.3989 56.8013Z" fill="white"/>
<path id="Vector_4" d="M53.9118 21.978C53.8867 25.4789 50.9889 28.3071 47.4462 28.2901C43.9378 28.2746 41.0009 25.3443 41.0401 21.8991C41.0792 18.4245 44.0224 15.5545 47.5244 15.5746C51.039 15.5947 53.9368 18.4987 53.9118 21.978ZM51.4054 22.029C51.4633 19.8935 49.7631 18.1261 47.5761 18.0488C45.4376 17.9745 43.5778 19.7559 43.5449 21.9115C43.5136 23.9928 45.2701 25.7742 47.3945 25.819C49.5706 25.8639 51.3474 24.1846 51.4054 22.029Z" fill="#CBCBCB"/>
<path id="Vector_5" d="M25.4742 6.69562C25.482 6.00905 26.008 5.49876 26.7062 5.50031C27.3998 5.50186 27.9399 6.02451 27.9477 6.70026C27.9555 7.38992 27.3794 7.94505 26.6687 7.92959C25.9799 7.91567 25.4648 7.38374 25.4726 6.69407L25.4742 6.69562Z" fill="#CBCBCB"/>
<path id="Vector_6" d="M46.3988 56.8013C45.7304 56.8136 45.1543 56.2724 45.1308 55.6106C45.1089 54.9472 45.6458 54.3797 46.3221 54.3519C47.0282 54.324 47.6168 54.8745 47.6215 55.5657C47.6246 56.226 47.0689 56.7889 46.3988 56.8013Z" fill="#CBCBCB"/>
<path id="Vector_7" d="M51.4054 22.029C51.3475 24.1846 49.5707 25.8639 47.3946 25.819C45.2702 25.7757 43.5137 23.9928 43.545 21.9115C43.5778 19.7559 45.4377 17.9745 47.5762 18.0487C49.7632 18.1261 51.4634 19.892 51.4054 22.029Z" fill="white"/>
</g>
<defs>
<clipPath id="clip0_1_1199">
<rect width="64" height="62" fill="white"/>
</clipPath>
</defs>
</svg>
