<svg width="71" height="71" viewBox="0 0 71 71" fill="none" xmlns="http://www.w3.org/2000/svg">
<g id="Location">
<path id="Vector" d="M26.9814 55.0147L26.9812 55.0144C23.2665 50.7685 19.7244 46.7146 17.1013 42.5338C14.4863 38.366 12.8334 34.1449 12.8333 29.5839C12.8402 23.5743 15.2306 17.8128 19.48 13.5634C23.7293 9.31407 29.4906 6.92373 35.5 6.91669C41.5094 6.92373 47.2706 9.31407 51.5199 13.5634C55.7695 17.813 58.1599 23.5747 58.1666 29.5845C58.1664 34.1453 56.5135 38.3661 53.8987 42.5338C51.2756 46.7146 47.7335 50.7685 44.0188 55.0144L44.0185 55.0147L43.9458 55.0979C41.6292 57.7479 39.2103 60.515 37.051 63.3191C36.868 63.5564 36.6331 63.7486 36.3642 63.8808C36.0953 64.013 35.7996 64.0818 35.5 64.0818C35.2003 64.0818 34.9047 64.013 34.6358 63.8808C34.3669 63.7486 34.1319 63.5564 33.949 63.3191C31.7897 60.515 29.3708 57.748 27.0542 55.098L26.9814 55.0147ZM30.0137 37.7941C31.6377 38.8792 33.5469 39.4584 35.5 39.4584C38.119 39.4584 40.6307 38.418 42.4827 36.566C44.3346 34.7141 45.375 32.2024 45.375 29.5834C45.375 27.6303 44.7958 25.721 43.7107 24.0971C42.6257 22.4732 41.0834 21.2075 39.279 20.46C37.4746 19.7126 35.489 19.5171 33.5735 19.8981C31.6579 20.2791 29.8983 21.2196 28.5173 22.6007C27.1363 23.9817 26.1958 25.7413 25.8147 27.6568C25.4337 29.5724 25.6293 31.5579 26.3767 33.3624C27.1241 35.1668 28.3898 36.709 30.0137 37.7941Z" fill="white" stroke="#CBCBCB" stroke-width="2"/>
</g>
</svg>
