<svg width="60" height="60" viewBox="0 0 60 60" fill="none" xmlns="http://www.w3.org/2000/svg">
<g id="Layer_1" clip-path="url(#clip0_1_1274)">
<path id="Vector" d="M16.0225 49.9999V52.0975C16.2024 52.1708 16.3756 52.2408 16.5472 52.3125C18.2664 53.0356 19.2876 54.8916 18.9444 56.6677C18.5729 58.592 17.007 59.9516 15.1162 59.9949C13.2271 60.0382 11.5546 58.7586 11.1281 56.9443C10.685 55.0632 11.5679 53.1538 13.3321 52.3991C13.8985 52.1558 14.0634 51.8809 14.0201 51.3061C13.9668 50.6014 14.0001 49.8899 14.0101 49.1818C14.0201 48.3671 14.3799 48.0056 15.2012 48.0022C17.5551 47.9956 19.909 48.0006 22.2629 48.0006C22.4878 48.0006 22.7127 48.0006 22.9725 48.0006V40.0515H21.0085C21.0085 40.4014 21.0085 40.7696 21.0085 41.1362C21.0085 42.3441 21.0135 43.552 21.0085 44.76C21.0035 45.6497 20.652 45.9979 19.7491 45.9996C16.0408 46.0029 12.3342 45.9996 8.62597 45.9996C8.39775 45.9996 8.16952 45.9996 7.95129 45.9996C7.11335 48.4338 4.92439 49.3634 2.98863 48.8653C1.18948 48.4004 -0.0532631 46.706 0.0200356 44.81C0.0916684 42.9523 1.46102 41.4144 3.36013 41.0579C5.28755 40.6963 6.94343 41.7443 7.91797 43.9652H18.9711V40.0599C16.9604 39.6217 16.0275 38.6204 16.0141 36.8776C16.0075 36.1479 16.0141 35.4198 16.0141 34.69C16.0141 34.4851 16.0141 34.2818 16.0141 34.0019C15.0196 34.0019 14.0684 33.9752 13.1188 34.0069C10.7683 34.0869 8.51935 33.7287 6.41535 32.6174C1.86083 30.2182 -0.691295 25.0932 0.164967 20.0499C1.03122 14.9516 5.06932 10.9196 10.1153 10.1632C10.9549 10.0382 11.8178 10.0232 12.6674 10.0382C13.1039 10.0466 13.3188 9.92326 13.542 9.54838C16.7255 4.20516 21.4049 1.02622 27.5587 0.174841C36.6677 -1.08474 45.3819 4.53672 48.134 13.3321C48.2139 13.587 48.2956 13.842 48.3889 14.1319C49.8482 13.9069 51.2675 13.9902 52.6702 14.3751C57.1914 15.6164 60.2832 19.9499 59.9784 24.6234C59.6669 29.3918 56.0419 33.2955 51.3358 33.8886C50.4512 34.0002 49.55 33.9886 48.6571 33.9986C47.1378 34.0152 45.6185 34.0036 44.0026 34.0036C44.0026 34.8283 44.0026 35.6297 44.0026 36.4328C44.0026 38.6387 43.2046 39.6167 41.0273 40.0582C41.019 40.1532 41.004 40.2548 41.004 40.3564C41.0023 41.5411 41.004 42.7273 41.004 44.0036H41.692C44.9621 44.0036 48.2323 43.9969 51.5024 44.0102C51.9172 44.0102 52.1454 43.9336 52.3203 43.4904C53.0183 41.7227 54.9075 40.7113 56.7099 41.0712C58.6507 41.4594 59.995 43.0639 59.9984 44.9932C60.0017 46.9259 58.6657 48.5321 56.7266 48.9286C54.9174 49.2985 53.055 48.2905 52.312 46.5394C52.2387 46.3678 52.1721 46.1962 52.0921 46.0029C49.1235 46.0029 46.1666 46.0029 43.2113 46.0029C42.2318 46.0029 41.2539 46.0062 40.2744 46.0029C39.3465 45.9979 39.0083 45.6547 39.0066 44.71C39.0033 43.1705 39.0066 41.6327 39.0066 40.0499H37.0426V48.0056H37.6806C40.0128 48.0056 42.3467 48.0056 44.6789 48.0056C45.6668 48.0056 46 48.3338 46.005 49.3035C46.0083 50.0332 46.04 50.763 45.9933 51.4894C45.9617 51.9642 46.1266 52.1642 46.5631 52.3408C48.2423 53.0189 49.2535 54.8433 48.9653 56.5744C48.6537 58.4504 47.1794 59.8383 45.3386 59.9882C43.4895 60.1382 41.7703 58.9902 41.2023 57.2208C40.5809 55.2881 41.4905 53.2255 43.3462 52.3691C43.5528 52.2741 43.766 52.1925 43.9876 52.0992V50.0016C43.7644 50.0016 43.5461 50.0016 43.3279 50.0016C40.9957 50.0016 38.6618 50.0032 36.3296 50.0016C35.3434 50.0016 35.0102 49.6717 35.0085 48.6987C35.0052 46.0529 35.0085 43.4088 35.0085 40.763V40.0449H31.0421V50.1132C32.5247 50.6164 33.5442 51.5727 33.9007 53.1355C34.3671 55.1782 33.1577 57.2342 31.152 57.834C29.1746 58.4238 27.0456 57.3908 26.2893 55.4731C25.5213 53.5237 26.3726 51.2528 28.29 50.4281C28.9214 50.1565 29.0263 49.83 29.0197 49.2352C28.9947 46.4028 29.008 43.5704 29.008 40.738C29.008 40.5147 29.008 40.2915 29.008 40.0366H25.0082C25.0082 40.2531 25.0082 40.4731 25.0082 40.6913C25.0082 43.3571 25.0099 46.0229 25.0082 48.6903C25.0082 49.67 24.6751 50.0016 23.6955 50.0016C21.3833 50.0049 19.071 50.0016 16.7588 50.0016C16.5339 50.0016 16.309 50.0016 16.0258 50.0016L16.0225 49.9999ZM43.3196 30.9379C43.5545 31.9792 44.2441 32.0442 45.0754 32.0192C46.7613 31.9676 48.4488 32.0192 50.1364 31.9976C53.8829 31.9509 57.1214 29.2368 57.8477 25.5564C58.5807 21.8459 56.595 18.1022 53.1083 16.6394C51.5274 15.9762 49.8948 15.8213 48.2173 16.2112C47.1844 16.4511 46.8246 16.2228 46.5664 15.1798C46.5464 15.0999 46.5264 15.0182 46.5081 14.9366C44.7689 7.71233 38.2936 2.26914 30.8738 2.04755C23.7055 1.83262 18.353 4.98657 14.873 11.2745C14.4266 12.0825 14.205 12.1758 13.2738 12.1142C12.4075 12.0559 11.5213 12.0142 10.665 12.1225C5.90725 12.724 2.19234 16.7843 2.01743 21.5111C1.83584 26.4527 5.11763 30.818 9.88704 31.7277C11.5429 32.0425 13.2854 31.8859 14.983 32.0176C15.7976 32.0809 16.3873 31.9159 16.6805 31.1029C16.6938 31.0645 16.7055 31.0262 16.7288 30.9496C15.6826 29.7883 16.0308 28.3355 16.0208 26.9676C16.0108 25.598 15.7126 24.1552 16.7605 22.9989C16.1774 22.2825 15.9825 21.5211 15.9992 20.6747C16.0241 19.4667 15.9958 18.2588 16.0092 17.0509C16.0291 15.3015 17.3069 14.0119 19.061 14.0102C26.3509 14.0019 33.6408 14.0019 40.9307 14.0102C42.7132 14.0119 43.9793 15.3048 43.9976 17.1009C44.0076 17.9972 43.9926 18.8919 44.0009 19.7883C44.0126 20.9329 44.1026 22.0909 43.248 22.9872C44.3208 24.565 44.3174 29.3834 43.3163 30.9379H43.3196ZM30.0059 22.0059C33.5892 22.0059 37.1708 22.0076 40.7541 22.0059C41.6487 22.0059 41.9969 21.6527 42.0019 20.7546C42.0069 19.5667 42.0102 18.3804 42.0019 17.1925C41.9952 16.3778 41.6304 16.0112 40.8141 16.0096C33.6075 16.0062 26.4009 16.0062 19.1943 16.0096C18.378 16.0096 18.0182 16.3778 18.0115 17.1958C18.0032 18.3421 18.0082 19.4867 18.0099 20.633C18.0099 21.6943 18.3214 22.0059 19.3859 22.0059C22.9276 22.0059 26.4675 22.0059 30.0092 22.0059H30.0059ZM29.9842 30.0049C33.5675 30.0049 37.1492 30.0066 40.7325 30.0049C41.642 30.0049 41.9969 29.66 42.0019 28.7753C42.0085 27.5874 42.0085 26.4011 42.0019 25.2132C41.9969 24.3651 41.6354 24.0086 40.7725 24.0086C33.5858 24.0052 26.4009 24.0052 19.2143 24.0086C18.3647 24.0086 18.0132 24.3718 18.0099 25.2365C18.0032 26.3828 18.0065 27.5274 18.0099 28.6737C18.0115 29.6867 18.3347 30.0049 19.3642 30.0049C22.9059 30.0049 26.4459 30.0049 29.9876 30.0049H29.9842ZM29.9426 38.0039C33.5459 38.0039 37.1492 38.0056 40.7525 38.0039C41.6487 38.0039 41.9969 37.6507 42.0019 36.7543C42.0069 35.5664 42.0102 34.3801 42.0019 33.1922C41.9952 32.3758 41.632 32.0092 40.8158 32.0076C33.6092 32.0042 26.4026 32.0042 19.196 32.0076C18.378 32.0076 18.0182 32.3741 18.0115 33.1922C18.0032 34.3385 18.0082 35.4831 18.0099 36.6294C18.0099 37.6923 18.3214 38.0039 19.3842 38.0039C22.9042 38.0039 26.4242 38.0039 29.9442 38.0039H29.9426ZM6.00721 44.9782C5.99222 43.8869 5.09264 43.0022 4.00149 43.0056C2.89035 43.0089 1.98411 43.9436 2.01409 45.0565C2.04241 46.1445 2.95698 47.0176 4.0498 46.9992C5.12929 46.9809 6.0222 46.0595 6.00721 44.9782ZM56.0253 46.9992C57.1047 46.9892 58.006 46.0745 57.9977 44.9932C57.991 43.9003 57.0998 43.0106 56.0069 43.0056C54.8941 43.0006 53.9829 43.9269 54.0029 45.0416C54.0229 46.1295 54.9308 47.0092 56.0236 46.9992H56.0253ZM30.0275 52.0026C28.9347 51.9959 28.0285 52.8739 28.0102 53.9619C27.9902 55.0765 28.9014 55.9996 30.0159 55.9946C31.1054 55.9896 31.9966 55.0965 32.0033 54.0052C32.0099 52.9239 31.107 52.0092 30.0275 52.0026ZM17.0053 56.0212C17.0203 54.9416 16.1241 54.0169 15.0463 54.0019C13.9518 53.9852 13.0406 54.8566 13.0122 55.9446C12.9822 57.0592 13.8868 57.9906 15.0013 57.9939C16.0908 57.9972 16.9904 57.1125 17.0053 56.0212ZM46.9995 56.0112C47.0095 54.9299 46.1099 54.0119 45.0304 54.0002C43.936 53.9886 43.0297 54.8633 43.0047 55.9529C42.9797 57.0675 43.8877 57.9939 45.0038 57.9939C46.0933 57.9939 46.9879 57.1025 46.9995 56.0112Z" fill="#CBCBCB"/>
<path id="Vector_2" d="M43.3196 30.938C44.3191 29.3835 44.3224 24.5651 43.2513 22.9873C44.1059 22.091 44.0159 20.933 44.0042 19.7884C43.9959 18.892 44.0092 17.9973 44.0009 17.101C43.9826 15.3049 42.7165 14.012 40.934 14.0103C33.6441 14.002 26.3542 14.002 19.0644 14.0103C17.3102 14.012 16.0324 15.3016 16.0125 17.051C15.9991 18.2589 16.0275 19.4668 16.0025 20.6748C15.9858 21.5212 16.1807 22.2826 16.7638 22.999C15.7159 24.1553 16.0141 25.5965 16.0241 26.9677C16.0341 28.3372 15.6859 29.7884 16.7321 30.9497C16.7071 31.0263 16.6971 31.0663 16.6838 31.103C16.3906 31.916 15.8009 32.081 14.9863 32.0177C13.2887 31.886 11.5462 32.0426 9.89035 31.7278C5.11927 30.8181 1.83749 26.4528 2.02073 21.5112C2.19565 16.7827 5.9089 12.7241 10.6683 12.1226C11.5262 12.0143 12.4108 12.056 13.2771 12.1143C14.2083 12.1759 14.4282 12.0826 14.8763 11.2746C18.3547 4.98667 23.7072 1.83272 30.8771 2.04765C38.2953 2.26924 44.7722 7.71242 46.5114 14.9367C46.5314 15.0183 46.5497 15.0983 46.5697 15.1799C46.8279 16.2213 47.1877 16.4512 48.2206 16.2113C49.8981 15.8214 51.5307 15.9763 53.1116 16.6394C56.5983 18.1006 58.584 21.8444 57.851 25.5565C57.1247 29.2386 53.8846 31.9527 50.1397 31.9977C48.4521 32.0177 46.7646 31.966 45.0787 32.0193C44.2475 32.0443 43.5578 31.9793 43.3229 30.938H43.3196Z" fill="white"/>
<path id="Vector_3" d="M30.0075 22.006C26.4658 22.006 22.9258 22.006 19.3842 22.006C18.3197 22.006 18.0098 21.6944 18.0081 20.6331C18.0065 19.4868 18.0015 18.3422 18.0098 17.1959C18.0165 16.3762 18.3763 16.0096 19.1926 16.0096C26.3992 16.0063 33.6058 16.0063 40.8124 16.0096C41.6303 16.0096 41.9951 16.3762 42.0001 17.1926C42.0085 18.3805 42.0068 19.5668 42.0001 20.7547C41.9968 21.6528 41.647 22.006 40.7524 22.006C37.1691 22.0093 33.5874 22.006 30.0041 22.006H30.0075ZM20.0372 19.9633H31.9549V18.039H20.0372V19.9633ZM35.9763 18.0423H34.0472V19.96H35.9763V18.0423ZM38.0303 19.9767H39.9694V18.0473H38.0303V19.9767Z" fill="white"/>
<path id="Vector_4" d="M29.9841 30.005C26.4425 30.005 22.9025 30.005 19.3608 30.005C18.3313 30.005 18.0081 29.6868 18.0065 28.6738C18.0031 27.5275 18.0015 26.3829 18.0065 25.2366C18.0114 24.3719 18.3613 24.0087 19.2109 24.0087C26.3975 24.0053 33.5824 24.0053 40.769 24.0087C41.632 24.0087 41.9935 24.3652 41.9985 25.2133C42.0068 26.4012 42.0051 27.5875 41.9985 28.7754C41.9935 29.6601 41.6386 30.005 40.7291 30.005C37.1457 30.0083 33.5641 30.005 29.9808 30.005H29.9841ZM31.9732 26.048H20.0555V27.974H31.9732V26.048ZM35.9746 26.0397H34.0422V27.9607H35.9746V26.0397ZM39.9727 26.0397H38.0437V27.9573H39.9727V26.0397Z" fill="white"/>
<path id="Vector_5" d="M29.9425 38.004C26.4225 38.004 22.9025 38.004 19.3825 38.004C18.3197 38.004 18.0098 37.6925 18.0081 36.6295C18.0065 35.4832 18.0015 34.3386 18.0098 33.1923C18.0165 32.3742 18.3763 32.0077 19.1942 32.0077C26.4008 32.0044 33.6074 32.0044 40.814 32.0077C41.6303 32.0077 41.9951 32.3759 42.0001 33.1923C42.0085 34.3802 42.0068 35.5665 42.0001 36.7544C41.9951 37.6508 41.647 38.004 40.7507 38.004C37.1474 38.0074 33.5441 38.004 29.9408 38.004H29.9425ZM20.0355 35.9597H31.9532V34.037H20.0355V35.9597ZM34.0172 35.9514H35.9613V34.052H34.0172V35.9514ZM39.9744 34.037H38.042V35.958H39.9744V34.037Z" fill="white"/>
<path id="Vector_6" d="M6.00714 44.9784C6.02214 46.0597 5.12922 46.981 4.04973 46.9994C2.95692 47.0177 2.04235 46.1446 2.01403 45.0567C1.98404 43.942 2.89028 43.009 4.00142 43.0057C5.09258 43.0024 5.99215 43.8871 6.00714 44.9784Z" fill="white"/>
<path id="Vector_7" d="M56.0235 46.9993C54.9307 47.0093 54.0228 46.1296 54.0028 45.0416C53.9812 43.927 54.8941 43.0006 56.0069 43.0056C57.098 43.0106 57.9893 43.9003 57.9976 44.9933C58.0043 46.0746 57.1047 46.9893 56.0252 46.9993H56.0235Z" fill="white"/>
<path id="Vector_8" d="M30.0258 52.0027C31.1053 52.0093 32.0082 52.924 32.0015 54.0053C31.9948 55.0966 31.1036 55.9897 30.0141 55.9947C28.8996 55.9997 27.9884 55.0766 28.0084 53.962C28.0284 52.874 28.9329 51.9943 30.0258 52.0027Z" fill="white"/>
<path id="Vector_9" d="M17.0053 56.0213C16.9903 57.1126 16.0907 57.999 15.0013 57.994C13.8868 57.9907 12.9822 57.0577 13.0122 55.9447C13.0405 54.8567 13.9518 53.9853 15.0462 54.002C16.1241 54.0187 17.0203 54.9417 17.0053 56.0213Z" fill="white"/>
<path id="Vector_10" d="M46.9995 56.013C46.9895 57.1043 46.0949 57.994 45.0038 57.9957C43.8893 57.9957 42.9814 57.0693 43.0047 55.9547C43.028 54.8651 43.9359 53.9903 45.0304 54.002C46.1099 54.0137 47.0095 54.9317 46.9995 56.013Z" fill="white"/>
<path id="Vector_11" d="M20.0355 19.9634V18.039H31.9532V19.9634H20.0355Z" fill="#CBCBCB"/>
<path id="Vector_12" d="M35.9746 18.0423V19.96H34.0455V18.0423H35.9746Z" fill="#CBCBCB"/>
<path id="Vector_13" d="M38.0287 19.9767V18.0473H39.9678V19.9767H38.0287Z" fill="#CBCBCB"/>
<path id="Vector_14" d="M31.975 26.048V27.974H20.0573V26.048H31.975Z" fill="#CBCBCB"/>
<path id="Vector_15" d="M35.9764 26.0397V27.9607H34.0439V26.0397H35.9764Z" fill="#CBCBCB"/>
<path id="Vector_16" d="M39.9728 26.0413V27.959H38.0437V26.0413H39.9728Z" fill="#CBCBCB"/>
<path id="Vector_17" d="M20.0355 35.9597V34.037H31.9532V35.9597H20.0355Z" fill="#CBCBCB"/>
<path id="Vector_18" d="M34.0172 35.9514V34.052H35.9613V35.9514H34.0172Z" fill="#CBCBCB"/>
<path id="Vector_19" d="M39.9744 34.037V35.958H38.042V34.037H39.9744Z" fill="#CBCBCB"/>
</g>
<defs>
<clipPath id="clip0_1_1274">
<rect width="60" height="60" fill="white"/>
</clipPath>
</defs>
</svg>
